<?xml version="1.0" encoding="UTF-8" standalone="no"?>
<!-- Created with Inkscape (http://www.inkscape.org/) -->

<svg
   xmlns:namespace="http://www.highcharts.com/svg/namespace"
   xmlns:dc="http://purl.org/dc/elements/1.1/"
   xmlns:cc="http://creativecommons.org/ns#"
   xmlns:rdf="http://www.w3.org/1999/02/22-rdf-syntax-ns#"
   xmlns:svg="http://www.w3.org/2000/svg"
   xmlns="http://www.w3.org/2000/svg"
   xmlns:sodipodi="http://sodipodi.sourceforge.net/DTD/sodipodi-0.dtd"
   xmlns:inkscape="http://www.inkscape.org/namespaces/inkscape"
   width="100%"
   height="100%"
   viewBox="-10 -10 95 108"
   id="chikwawa"
   version="1.1"
   inkscape:version="0.48.4 r9939"
   sodipodi:docname="New document 88">
  <defs
     id="defs4381" />
  <sodipodi:namedview
     id="base"
     pagecolor="#ffffff"
     bordercolor="#666666"
     borderopacity="1.0"
     inkscape:pageopacity="0.0"
     inkscape:pageshadow="2"
     inkscape:zoom="0.35"
     inkscape:cx="141.21875"
     inkscape:cy="95.637817"
     inkscape:document-units="px"
     inkscape:current-layer="layer1"
     showgrid="false"
     fit-margin-top="0"
     fit-margin-left="0"
     fit-margin-right="0"
     fit-margin-bottom="0"
     inkscape:window-width="472"
     inkscape:window-height="383"
     inkscape:window-x="65"
     inkscape:window-y="669"
     inkscape:window-maximized="0" />
  <metadata
     id="metadata4384">
    <rdf:RDF>
      <cc:Work
         rdf:about="">
        <dc:format>image/svg+xml</dc:format>
        <dc:type
           rdf:resource="http://purl.org/dc/dcmitype/StillImage" />
        <dc:title></dc:title>
      </cc:Work>
    </rdf:RDF>
  </metadata>
  <g
     inkscape:label="Layer 1"
     inkscape:groupmode="layer"
     id="layer1"
     transform="translate(-233.78125,-539.625)">
    <path
       id="MW.CK"
       d="m 290.37857,627.74075 -3.7,-2.1 -2.1,-4.6 -4,-3.4 -3.5,-5.5 -6.7,-3.7 -2.1,-4.1 -2.8,-2.2 -2,-2.5 -2.4,-6.2 -1.9,-2.1 -6.9,-0.7 -1.7,-1.8 -3.5,-7.9 0.4,-3 1.7,-5.8 -0.4,-2.6 -1.4,-2 -7.2,-7.7 -5.3,-3.2 -0.9,-2.5 0.3,-6.4 1,-2.2 4,-3.9 4.3,-1.8 13.5,5.9 3.5,1.1 18.5,0.6 10,1.1 1.3,2.9 -1.6,4.1 0,2.5 -1.3,2.5 0.3,1.4 2.6,0.2 -0.4,3.2 1.4,1.6 4.9,8.1 11.5,13.5 1.1,6 -3,13.3 -7.6,8.1 -1.3,5.2 -4.1,2.8 z"
       inkscape:connector-curvature="0"
       style="fill:#ffffff;fill-opacity:1;stroke:#6e6e6e;stroke-width:0.40000001">
      <namespace:desc>
        <namespace:labelrank>8</namespace:labelrank>
        <namespace:hasc>MW.CK</namespace:hasc>
        <namespace:alt-name>NULL</namespace:alt-name>
        <namespace:woe-id>20070146</namespace:woe-id>
        <namespace:subregion>NULL</namespace:subregion>
        <namespace:fips>MI02</namespace:fips>
        <namespace:postal-code>CK</namespace:postal-code>
        <namespace:name>Chikwawa</namespace:name>
        <namespace:country>Malawi</namespace:country>
        <namespace:type-en>District</namespace:type-en>
        <namespace:region>Southern</namespace:region>
        <namespace:longitude>34.6636</namespace:longitude>
        <namespace:woe-name>Chikwawa</namespace:woe-name>
        <namespace:latitude>-16.1524</namespace:latitude>
        <namespace:woe-label>Chikwawa, MW, Malawi</namespace:woe-label>
        <namespace:type>District</namespace:type>
        <namespace:hc-middle-x>0.51</namespace:hc-middle-x>
        <namespace:hc-middle-y>0.38</namespace:hc-middle-y>
        <namespace:hc-key>mw-ck</namespace:hc-key>
        <namespace:hc-a2>CK</namespace:hc-a2>
      </namespace:desc>
    </path>
  </g>
</svg>
