<?xml version="1.0" encoding="UTF-8" standalone="no"?>
<!-- Created with Inkscape (http://www.inkscape.org/) -->

<svg
   xmlns:namespace="http://www.highcharts.com/svg/namespace"
   xmlns:dc="http://purl.org/dc/elements/1.1/"
   xmlns:cc="http://creativecommons.org/ns#"
   xmlns:rdf="http://www.w3.org/1999/02/22-rdf-syntax-ns#"
   xmlns:svg="http://www.w3.org/2000/svg"
   xmlns="http://www.w3.org/2000/svg"
   xmlns:sodipodi="http://sodipodi.sourceforge.net/DTD/sodipodi-0.dtd"
   xmlns:inkscape="http://www.inkscape.org/namespaces/inkscape"
   width="100%"
   height="100%"
   viewBox="-10 -10 112 127"
   id="chitipa"
   version="1.1"
   inkscape:version="0.48.4 r9939"
   sodipodi:docname="New document 12">
  <defs
     id="defs3243" />
  <sodipodi:namedview
     id="base"
     pagecolor="#ffffff"
     bordercolor="#666666"
     borderopacity="1.0"
     inkscape:pageopacity="0.0"
     inkscape:pageshadow="2"
     inkscape:zoom="0.35"
     inkscape:cx="123.90625"
     inkscape:cy="105.41907"
     inkscape:document-units="px"
     inkscape:current-layer="layer1"
     showgrid="false"
     fit-margin-top="0"
     fit-margin-left="0"
     fit-margin-right="0"
     fit-margin-bottom="0"
     inkscape:window-width="472"
     inkscape:window-height="383"
     inkscape:window-x="65"
     inkscape:window-y="669"
     inkscape:window-maximized="0" />
  <metadata
     id="metadata3246">
    <rdf:RDF>
      <cc:Work
         rdf:about="">
        <dc:format>image/svg+xml</dc:format>
        <dc:type
           rdf:resource="http://purl.org/dc/dcmitype/StillImage" />
        <dc:title></dc:title>
      </cc:Work>
    </rdf:RDF>
  </metadata>
  <g
     inkscape:label="Layer 1"
     inkscape:groupmode="layer"
     id="layer1"
     transform="translate(-251.09375,-529.875)">
    <path
       id="MW.CT"
       d="m 342.99286,626.59075 -22,9.9 -2.5,1 -0.8,-5.2 -2.4,-0.3 -1.4,-1.6 -1.7,-4.1 -3.9,-4 -2.4,-5.6 -0.3,-2.2 0.6,-5 -0.2,-2.8 -4.7,-4.9 -2.3,-0.8 -5,-4.6 -7.3,-3.2 -1.2,-1.7 0.6,-4.6 1.7,-4.2 3.3,-6 -0.6,-2.5 -2,-4.3 -5.5,-2.7 -2,-3.6 -3.2,-2.4 -1.1,-2.6 1,-2.6 -1.8,-4.8 -1.8,-1.2 -4.8,-0.3 -2.1,-1 -0.8,5 -0.8,1.7 -2,-0.8 -2,-3.3 -3.2,1.4 -2.3,-2.8 1.6,-6.5 0,-2.5 -2.7,-1.9 -2.2,0.6 -1.3,-1.9 -0.2,-5.3 3.1,-2.3 3.3,0.8 4.5,4.5 5.5,4.2 6.2,2.1 2.6,-1.6 4.9,0.5 2.3,-1.1 1.6,0.5 6.6,5.2 2.6,5 3.1,1.5 3.8,0.3 2.7,-0.7 4.3,-2.1 8.1,1.6 2.5,4.3 -0.3,2.6 2.2,7.5 -0.4,1.5 -2.2,0.5 -3.5,3.2 -3.2,4.5 -7.5,4.6 -2.3,0.7 0,3.1 5.1,4.4 2.5,0.4 5.7,3.9 5.3,-0.3 2.3,3.2 z"
       inkscape:connector-curvature="0"
       style="fill:#ffffff;fill-opacity:1;stroke:#6e6e6e;stroke-width:0.40000001">
      <namespace:desc>
        <namespace:labelrank>8</namespace:labelrank>
        <namespace:hasc>MW.CT</namespace:hasc>
        <namespace:alt-name>NULL</namespace:alt-name>
        <namespace:woe-id>20070124</namespace:woe-id>
        <namespace:subregion>NULL</namespace:subregion>
        <namespace:fips>MI04</namespace:fips>
        <namespace:postal-code>CT</namespace:postal-code>
        <namespace:name>Chitipa</namespace:name>
        <namespace:country>Malawi</namespace:country>
        <namespace:type-en>District</namespace:type-en>
        <namespace:region>NULL</namespace:region>
        <namespace:longitude>33.4345</namespace:longitude>
        <namespace:woe-name>Chitipa</namespace:woe-name>
        <namespace:latitude>-9.885719999999999</namespace:latitude>
        <namespace:woe-label>Chitipa, MW, Malawi</namespace:woe-label>
        <namespace:type>District</namespace:type>
        <namespace:hc-middle-x>0.75</namespace:hc-middle-x>
        <namespace:hc-middle-y>0.80</namespace:hc-middle-y>
        <namespace:hc-key>mw-ct</namespace:hc-key>
        <namespace:hc-a2>CT</namespace:hc-a2>
      </namespace:desc>
    </path>
  </g>
</svg>
