<?xml version="1.0" encoding="UTF-8" standalone="no"?>
<!-- Created with Inkscape (http://www.inkscape.org/) -->

<svg
   xmlns:namespace="http://www.highcharts.com/svg/namespace"
   xmlns:dc="http://purl.org/dc/elements/1.1/"
   xmlns:cc="http://creativecommons.org/ns#"
   xmlns:rdf="http://www.w3.org/1999/02/22-rdf-syntax-ns#"
   xmlns:svg="http://www.w3.org/2000/svg"
   xmlns="http://www.w3.org/2000/svg"
   xmlns:sodipodi="http://sodipodi.sourceforge.net/DTD/sodipodi-0.dtd"
   xmlns:inkscape="http://www.inkscape.org/namespaces/inkscape"
   width="100%"
   height="100%"
   viewBox="-10 -10 100 89"
   id="dedza"
   version="1.1"
   inkscape:version="0.48.4 r9939"
   sodipodi:docname="New document 2">
  <defs
     id="defs3028" />
  <sodipodi:namedview
     id="base"
     pagecolor="#ffffff"
     bordercolor="#666666"
     borderopacity="1.0"
     inkscape:pageopacity="0.0"
     inkscape:pageshadow="2"
     inkscape:zoom="0.35"
     inkscape:cx="236.375"
     inkscape:cy="305.60657"
     inkscape:document-units="px"
     inkscape:current-layer="layer1"
     showgrid="false"
     fit-margin-top="0"
     fit-margin-left="0"
     fit-margin-right="0"
     fit-margin-bottom="0"
     inkscape:window-width="793"
     inkscape:window-height="787"
     inkscape:window-x="1127"
     inkscape:window-y="24"
     inkscape:window-maximized="0" />
  <metadata
     id="metadata3031">
    <rdf:RDF>
      <cc:Work
         rdf:about="">
        <dc:format>image/svg+xml</dc:format>
        <dc:type
           rdf:resource="http://purl.org/dc/dcmitype/StillImage" />
        <dc:title></dc:title>
      </cc:Work>
    </rdf:RDF>
  </metadata>
  <g
     inkscape:label="Layer 1"
     inkscape:groupmode="layer"
     id="layer1"
     transform="translate(-138.625,-769.46875)">
    <path
       id="MW.DE"
       d="m 220.87143,790.04075 3.3,4.2 1.2,3.6 2.9,3.4 4.2,1.1 1.5,1.4 -0.4,3.6 1.3,0.9 3.4,-1.3 0,0.1 0,3.8 -7.2,4.3 -6.6,4.9 -5,2.1 -2.3,0.2 -5,-2.9 -4.3,-0.4 -2,1.6 -3.2,-2.4 -2.7,1.5 -2.8,0 -8.7,3.1 -6.4,0.1 -2.8,1.2 -2.4,3.7 -9.3,-1.3 -4.9,0.6 -5.1,3.1 -2.5,0.9 -2.5,-0.3 -4.7,-3.6 -1.9,0.5 -2.1,4.7 -0.3,4.7 -0.9,0.6 -2.5,-1.4 -1.3,-2.7 4,-3.2 1.9,-3.1 1.3,-7.6 1.4,-1.9 7.3,-3.6 3.9,-3.2 7.3,-1.4 1.4,-1.1 0.9,-5.6 1.1,-2.2 4.6,-1.1 6.8,-6.3 2.2,-4.7 4.5,-5.5 3.2,-6.4 5.4,-4.3 1.6,-2.6 3.8,5.5 6.6,6.7 2.9,5.4 2.8,4.1 2.4,2.1 z"
       inkscape:connector-curvature="0"
       style="fill:#ffffff;fill-opacity:1;stroke:#6e6e6e;stroke-width:0.40000001">
      <namespace:desc>
        <namespace:labelrank>7</namespace:labelrank>
        <namespace:hasc>MW.DE</namespace:hasc>
        <namespace:alt-name>NULL</namespace:alt-name>
        <namespace:woe-id>20070135</namespace:woe-id>
        <namespace:subregion>NULL</namespace:subregion>
        <namespace:fips>MI06</namespace:fips>
        <namespace:postal-code>DE</namespace:postal-code>
        <namespace:name>Dedza</namespace:name>
        <namespace:country>Malawi</namespace:country>
        <namespace:type-en>District</namespace:type-en>
        <namespace:region>Central</namespace:region>
        <namespace:longitude>34.1833</namespace:longitude>
        <namespace:woe-name>Dedza</namespace:woe-name>
        <namespace:latitude>-14.2064</namespace:latitude>
        <namespace:woe-label>Dedza, MW, Malawi</namespace:woe-label>
        <namespace:type>District</namespace:type>
        <namespace:hc-middle-x>0.57</namespace:hc-middle-x>
        <namespace:hc-middle-y>0.47</namespace:hc-middle-y>
        <namespace:hc-key>mw-de</namespace:hc-key>
        <namespace:hc-a2>DE</namespace:hc-a2>
      </namespace:desc>
    </path>
  </g>
</svg>
