<?xml version="1.0" encoding="UTF-8" standalone="no"?>
<!-- Created with Inkscape (http://www.inkscape.org/) -->

<svg
   xmlns:namespace="http://www.highcharts.com/svg/namespace"
   xmlns:dc="http://purl.org/dc/elements/1.1/"
   xmlns:cc="http://creativecommons.org/ns#"
   xmlns:rdf="http://www.w3.org/1999/02/22-rdf-syntax-ns#"
   xmlns:svg="http://www.w3.org/2000/svg"
   xmlns="http://www.w3.org/2000/svg"
   xmlns:sodipodi="http://sodipodi.sourceforge.net/DTD/sodipodi-0.dtd"
   xmlns:inkscape="http://www.inkscape.org/namespaces/inkscape"
   width="100%"
   height="100%"
   viewBox="-10 -10 98 74"
   id="dowa"
   version="1.1"
   inkscape:version="0.48.4 r9939"
   sodipodi:docname="New document 39">
  <defs
     id="defs3648" />
  <sodipodi:namedview
     id="base"
     pagecolor="#ffffff"
     bordercolor="#666666"
     borderopacity="1.0"
     inkscape:pageopacity="0.0"
     inkscape:pageshadow="2"
     inkscape:zoom="0.35"
     inkscape:cx="94.25"
     inkscape:cy="41.137817"
     inkscape:document-units="px"
     inkscape:current-layer="layer1"
     showgrid="false"
     fit-margin-top="0"
     fit-margin-left="0"
     fit-margin-right="0"
     fit-margin-bottom="0"
     inkscape:window-width="472"
     inkscape:window-height="383"
     inkscape:window-x="65"
     inkscape:window-y="669"
     inkscape:window-maximized="0" />
  <metadata
     id="metadata3651">
    <rdf:RDF>
      <cc:Work
         rdf:about="">
        <dc:format>image/svg+xml</dc:format>
        <dc:type
           rdf:resource="http://purl.org/dc/dcmitype/StillImage" />
        <dc:title></dc:title>
      </cc:Work>
    </rdf:RDF>
  </metadata>
  <g
     inkscape:label="Layer 1"
     inkscape:groupmode="layer"
     id="layer1"
     transform="translate(-280.75,-519.46875)">
    <path
       id="MW.DO"
       d="m 354,569.4979 -2.5,1.3 -5.2,-0.2 -3.7,1.8 -6.4,0.9 -4.6,-3.8 -4.9,-1.8 -4.7,-0.5 -7.3,0.6 -2.6,-1.4 -1.8,-7.7 -1.2,-0.2 -14,3.9 -5.2,-0.1 -4.1,-2.1 -0.8,-1.3 -2,-9.2 0.6,-5.3 -2.6,-2.2 3.7,-7.5 0.8,-3 -1.2,-2.5 0.7,-1.1 4.7,1.8 3.4,-3.8 2.5,-1.6 2.8,-4.5 0.7,3.2 5.7,4.8 2.3,3.6 1.9,5 0.8,6.8 0.9,1.1 5.2,0.2 4.8,-1.7 2.4,-0.1 4.8,1.4 3.9,-0.2 5,1.9 2.2,0 3.3,-1.4 1.3,6.6 -0.9,4.1 7,6.1 2.3,0.1 4.3,-1.9 0.8,1.4 0.2,3.1 1.7,1.7 -0.5,1.4 z"
       inkscape:connector-curvature="0"
       style="fill:#ffffff;fill-opacity:1;stroke:#6e6e6e;stroke-width:0.40000001">
      <namespace:desc>
        <namespace:labelrank>8</namespace:labelrank>
        <namespace:hasc>MW.DO</namespace:hasc>
        <namespace:alt-name>NULL</namespace:alt-name>
        <namespace:woe-id>20070132</namespace:woe-id>
        <namespace:subregion>NULL</namespace:subregion>
        <namespace:fips>MI07</namespace:fips>
        <namespace:postal-code>DO</namespace:postal-code>
        <namespace:name>Dowa</namespace:name>
        <namespace:country>Malawi</namespace:country>
        <namespace:type-en>District</namespace:type-en>
        <namespace:region>Central</namespace:region>
        <namespace:longitude>33.8651</namespace:longitude>
        <namespace:woe-name>Dowa</namespace:woe-name>
        <namespace:latitude>-13.625</namespace:latitude>
        <namespace:woe-label>Dowa, MW, Malawi</namespace:woe-label>
        <namespace:type>District</namespace:type>
        <namespace:hc-middle-x>0.39</namespace:hc-middle-x>
        <namespace:hc-middle-y>0.59</namespace:hc-middle-y>
        <namespace:hc-key>mw-do</namespace:hc-key>
        <namespace:hc-a2>DO</namespace:hc-a2>
      </namespace:desc>
    </path>
  </g>
</svg>
