<?xml version="1.0" encoding="UTF-8" standalone="no"?>
<!-- Created with Inkscape (http://www.inkscape.org/) -->

<svg
   xmlns:namespace="http://www.highcharts.com/svg/namespace"
   xmlns:dc="http://purl.org/dc/elements/1.1/"
   xmlns:cc="http://creativecommons.org/ns#"
   xmlns:rdf="http://www.w3.org/1999/02/22-rdf-syntax-ns#"
   xmlns:svg="http://www.w3.org/2000/svg"
   xmlns="http://www.w3.org/2000/svg"
   xmlns:sodipodi="http://sodipodi.sourceforge.net/DTD/sodipodi-0.dtd"
   xmlns:inkscape="http://www.inkscape.org/namespaces/inkscape"
   width="100%"
   height="100%"
   viewBox="-10 -10 90 110"
   id="karonga"
   version="1.1"
   inkscape:version="0.48.4 r9939"
   sodipodi:docname="New document 15">
  <defs
     id="defs3288" />
  <sodipodi:namedview
     id="base"
     pagecolor="#ffffff"
     bordercolor="#666666"
     borderopacity="1.0"
     inkscape:pageopacity="0.0"
     inkscape:pageshadow="2"
     inkscape:zoom="0.35"
     inkscape:cx="95.90625"
     inkscape:cy="56.825317"
     inkscape:document-units="px"
     inkscape:current-layer="layer1"
     showgrid="false"
     fit-margin-top="0"
     fit-margin-left="0"
     fit-margin-right="0"
     fit-margin-bottom="0"
     inkscape:window-width="472"
     inkscape:window-height="383"
     inkscape:window-x="65"
     inkscape:window-y="669"
     inkscape:window-maximized="0" />
  <metadata
     id="metadata3291">
    <rdf:RDF>
      <cc:Work
         rdf:about="">
        <dc:format>image/svg+xml</dc:format>
        <dc:type
           rdf:resource="http://purl.org/dc/dcmitype/StillImage" />
        <dc:title></dc:title>
      </cc:Work>
    </rdf:RDF>
  </metadata>
  <g
     inkscape:label="Layer 1"
     inkscape:groupmode="layer"
     id="layer1"
     transform="translate(-279.09375,-498.40625)">
    <path
       id="MW.1011"
       d="m 341.58571,588.94075 -4,-0.9 -2.6,0.7 -1.9,-1.2 -12.6,-10.7 -20.3,-31.7 -2.3,-3.2 -5.3,0.3 -5.7,-3.9 -2.5,-0.4 -5.1,-4.4 0,-3.1 2.3,-0.7 7.5,-4.6 3.2,-4.5 3.5,-3.2 2.2,-0.5 0.4,-1.5 -2.2,-7.5 0.3,-2.6 -2.5,-4.3 2.4,-0.3 5.2,-2.1 4.7,3.8 7,3.9 4.1,4.4 -1.1,3.6 0.7,6.2 2.1,5 1.9,0.7 0.2,3.9 1,6.2 2.6,6 7.3,10.7 5,5 4.2,3.3 1,2.7 4.2,5 2.8,6.9 -2.5,1.2 -2,2.1 0.7,5 -3.4,2.5 z"
       inkscape:connector-curvature="0"
       style="fill:#ffffff;fill-opacity:1;stroke:#6e6e6e;stroke-width:0.40000001">
      <namespace:desc>
        <namespace:labelrank>8</namespace:labelrank>
        <namespace:hasc>MW.CT</namespace:hasc>
        <namespace:alt-name>NULL</namespace:alt-name>
        <namespace:woe-id>20070125</namespace:woe-id>
        <namespace:subregion>NULL</namespace:subregion>
        <namespace:fips>MI08</namespace:fips>
        <namespace:postal-code>NULL</namespace:postal-code>
        <namespace:name>Chitipa</namespace:name>
        <namespace:country>Malawi</namespace:country>
        <namespace:type-en>District</namespace:type-en>
        <namespace:region>NULL</namespace:region>
        <namespace:longitude>33.8876</namespace:longitude>
        <namespace:woe-name>Chitipa</namespace:woe-name>
        <namespace:latitude>-10.0267</namespace:latitude>
        <namespace:woe-label>Karonga, MW, Malawi</namespace:woe-label>
        <namespace:type>District</namespace:type>
        <namespace:hc-middle-x>0.63</namespace:hc-middle-x>
        <namespace:hc-middle-y>0.66</namespace:hc-middle-y>
        <namespace:hc-key>mw-1011</namespace:hc-key>
        <namespace:hc-a2>CH</namespace:hc-a2>
      </namespace:desc>
    </path>
  </g>
</svg>
