<?xml version="1.0" encoding="UTF-8" standalone="no"?>
<!-- Created with Inkscape (http://www.inkscape.org/) -->

<svg
   xmlns:namespace="http://www.highcharts.com/svg/namespace"
   xmlns:dc="http://purl.org/dc/elements/1.1/"
   xmlns:cc="http://creativecommons.org/ns#"
   xmlns:rdf="http://www.w3.org/1999/02/22-rdf-syntax-ns#"
   xmlns:svg="http://www.w3.org/2000/svg"
   xmlns="http://www.w3.org/2000/svg"
   xmlns:sodipodi="http://sodipodi.sourceforge.net/DTD/sodipodi-0.dtd"
   xmlns:inkscape="http://www.inkscape.org/namespaces/inkscape"
   width="100%"
   height="100%"
   viewBox="-10 -10 117 133"
   id="kasungu"
   version="1.1"
   inkscape:version="0.48.4 r9939"
   sodipodi:docname="New document 30">
  <defs
     id="defs3513" />
  <sodipodi:namedview
     id="base"
     pagecolor="#ffffff"
     bordercolor="#666666"
     borderopacity="1.0"
     inkscape:pageopacity="0.0"
     inkscape:pageshadow="2"
     inkscape:zoom="0.35"
     inkscape:cx="109.375"
     inkscape:cy="133.91907"
     inkscape:document-units="px"
     inkscape:current-layer="layer1"
     showgrid="false"
     fit-margin-top="0"
     fit-margin-left="0"
     fit-margin-right="0"
     fit-margin-bottom="0"
     inkscape:window-width="472"
     inkscape:window-height="383"
     inkscape:window-x="65"
     inkscape:window-y="669"
     inkscape:window-maximized="0" />
  <metadata
     id="metadata3516">
    <rdf:RDF>
      <cc:Work
         rdf:about="">
        <dc:format>image/svg+xml</dc:format>
        <dc:type
           rdf:resource="http://purl.org/dc/dcmitype/StillImage" />
        <dc:title></dc:title>
      </cc:Work>
    </rdf:RDF>
  </metadata>
  <g
     inkscape:label="Layer 1"
     inkscape:groupmode="layer"
     id="layer1"
     transform="translate(-265.625,-552.78125)">
    <path
       id="MW.KS"
       d="m 348.18571,583.30504 -1.2,7.1 -0.1,2.8 1,2.4 6.4,-0.3 3.4,1.1 4.7,5.9 0.3,2 -4.3,3.2 -2.7,4.1 -6.5,3.1 -2.1,3.1 -4.5,3.1 -2.9,4.1 -3.7,3.3 -7.1,2.2 -2.8,4.5 -2.5,1.6 -3.4,3.8 -4.7,-1.8 -0.7,1.1 1.2,2.5 -0.8,3 -3.7,7.5 -2.6,1.8 -0.9,2.6 0.6,1.4 -0.7,3.6 -4.2,3.9 -3.6,-4 -2.4,-1.4 -5.3,-5.3 -1.8,-2.8 -2.4,-5.6 -0.6,-6.3 -1,-0.9 -20.7,1.3 1.3,-5.1 1.6,-3.5 2.2,-2.7 2.7,-0.8 0.2,-2.3 -2.1,-3.6 -0.5,-3.1 1.4,-10 2.4,-5.5 0.4,-2.5 -0.8,-2.2 -5.1,-4.5 -0.5,-6.6 1.5,-4 3.2,-4.7 2.7,-5.4 2.2,-2.4 1.3,-0.1 1.5,1.8 4.3,-1.9 2.9,3.3 5.7,-3.8 2.5,-4.2 4.2,-0.6 2.3,1.1 3.9,-1.7 4.3,-4.8 2.6,-1.1 0.9,-3.3 4.7,-3.8 5.3,1.2 0.9,2.2 -2.3,4.1 0.4,6.5 2,3.9 -1.4,2.8 0.6,4 2.2,0 4.4,4.9 4.3,1.1 5.6,-1.9 4.3,2.6 z"
       inkscape:connector-curvature="0"
       style="fill:#ffffff;fill-opacity:1;stroke:#6e6e6e;stroke-width:0.40000001">
      <namespace:desc>
        <namespace:labelrank>8</namespace:labelrank>
        <namespace:hasc>MW.KS</namespace:hasc>
        <namespace:alt-name>NULL</namespace:alt-name>
        <namespace:woe-id>20070128</namespace:woe-id>
        <namespace:subregion>NULL</namespace:subregion>
        <namespace:fips>MI09</namespace:fips>
        <namespace:postal-code>KS</namespace:postal-code>
        <namespace:name>Kasungu</namespace:name>
        <namespace:country>Malawi</namespace:country>
        <namespace:type-en>District</namespace:type-en>
        <namespace:region>Central</namespace:region>
        <namespace:longitude>33.4535</namespace:longitude>
        <namespace:woe-name>Kasungu</namespace:woe-name>
        <namespace:latitude>-12.9319</namespace:latitude>
        <namespace:woe-label>Kasungu, MW, Malawi</namespace:woe-label>
        <namespace:type>District</namespace:type>
        <namespace:hc-middle-x>0.43</namespace:hc-middle-x>
        <namespace:hc-middle-y>0.54</namespace:hc-middle-y>
        <namespace:hc-key>mw-ks</namespace:hc-key>
        <namespace:hc-a2>KS</namespace:hc-a2>
      </namespace:desc>
    </path>
  </g>
</svg>
