<?xml version="1.0" encoding="UTF-8" standalone="no"?>
<!-- Created with Inkscape (http://www.inkscape.org/) -->

<svg
   xmlns:namespace="http://www.highcharts.com/svg/namespace"
   xmlns:dc="http://purl.org/dc/elements/1.1/"
   xmlns:cc="http://creativecommons.org/ns#"
   xmlns:rdf="http://www.w3.org/1999/02/22-rdf-syntax-ns#"
   xmlns:svg="http://www.w3.org/2000/svg"
   xmlns="http://www.w3.org/2000/svg"
   xmlns:sodipodi="http://sodipodi.sourceforge.net/DTD/sodipodi-0.dtd"
   xmlns:inkscape="http://www.inkscape.org/namespaces/inkscape"
   width="100%"
   height="100%"
   viewBox="-10 -10 85 85"
   id="machinga"
   version="1.1"
   inkscape:version="0.48.4 r9939"
   sodipodi:docname="New document 64">
  <defs
     id="defs4021" />
  <sodipodi:namedview
     id="base"
     pagecolor="#ffffff"
     bordercolor="#666666"
     borderopacity="1.0"
     inkscape:pageopacity="0.0"
     inkscape:pageshadow="2"
     inkscape:zoom="0.35"
     inkscape:cx="153.1875"
     inkscape:cy="106.51282"
     inkscape:document-units="px"
     inkscape:current-layer="layer1"
     showgrid="false"
     fit-margin-top="0"
     fit-margin-left="0"
     fit-margin-right="0"
     fit-margin-bottom="0"
     inkscape:window-width="472"
     inkscape:window-height="383"
     inkscape:window-x="65"
     inkscape:window-y="669"
     inkscape:window-maximized="0" />
  <metadata
     id="metadata4024">
    <rdf:RDF>
      <cc:Work
         rdf:about="">
        <dc:format>image/svg+xml</dc:format>
        <dc:type
           rdf:resource="http://purl.org/dc/dcmitype/StillImage" />
        <dc:title></dc:title>
      </cc:Work>
    </rdf:RDF>
  </metadata>
  <g
     inkscape:label="Layer 1"
     inkscape:groupmode="layer"
     id="layer1"
     transform="translate(-221.8125,-574.375)">
    <path
       id="MW.MA"
       d="m 273.43571,574.6479 3.1,4.1 4.3,4.4 1.5,2.9 0.6,18.9 3.6,0.9 -10.2,23.4 -0.7,2.2 0.4,3.6 -22.6,-0.7 -1.7,1.3 -3.9,1.6 -2.1,0.1 -6.1,-2.4 -2.7,-0.3 -4.1,2.9 -4.8,-1 -3.4,2.1 -1.5,-0.4 -1.1,-2.1 1.4,-2.2 2.2,-7.6 1.6,-3.1 1.1,-4.2 2.7,-4.1 2.3,-1.8 0.6,-1.9 0.9,-7.3 -0.1,-4.2 -1,-3.9 -2.3,-2.5 -0.3,-3.5 1.5,-3.3 2,0.8 3.3,4 7.9,2.8 2.7,-0.9 2.3,-2.4 3.2,-1.5 1.5,-3.7 -0.4,-3 1.6,-2.5 3.1,-1.5 4.4,-1 4.7,-0.3 z"
       inkscape:connector-curvature="0"
       style="fill:#ffffff;fill-opacity:1;stroke:#6e6e6e;stroke-width:0.40000001">
      <namespace:desc>
        <namespace:labelrank>7</namespace:labelrank>
        <namespace:hasc>MW.MA</namespace:hasc>
        <namespace:alt-name>Kasupe|Kasupi|Liwonde</namespace:alt-name>
        <namespace:woe-id>20070138</namespace:woe-id>
        <namespace:subregion>NULL</namespace:subregion>
        <namespace:fips>MI28</namespace:fips>
        <namespace:postal-code>MA</namespace:postal-code>
        <namespace:name>Machinga</namespace:name>
        <namespace:country>Malawi</namespace:country>
        <namespace:type-en>District</namespace:type-en>
        <namespace:region>NULL</namespace:region>
        <namespace:longitude>35.5384</namespace:longitude>
        <namespace:woe-name>Machinga</namespace:woe-name>
        <namespace:latitude>-14.9533</namespace:latitude>
        <namespace:woe-label>Machinga, MW, Malawi</namespace:woe-label>
        <namespace:type>District</namespace:type>
        <namespace:hc-middle-x>0.49</namespace:hc-middle-x>
        <namespace:hc-middle-y>0.60</namespace:hc-middle-y>
        <namespace:hc-key>mw-ma</namespace:hc-key>
        <namespace:hc-a2>MA</namespace:hc-a2>
      </namespace:desc>
    </path>
  </g>
</svg>
