<?xml version="1.0" encoding="UTF-8" standalone="no"?>
<!-- Created with Inkscape (http://www.inkscape.org/) -->

<svg
   xmlns:namespace="http://www.highcharts.com/svg/namespace"
   xmlns:dc="http://purl.org/dc/elements/1.1/"
   xmlns:cc="http://creativecommons.org/ns#"
   xmlns:rdf="http://www.w3.org/1999/02/22-rdf-syntax-ns#"
   xmlns:svg="http://www.w3.org/2000/svg"
   xmlns="http://www.w3.org/2000/svg"
   xmlns:sodipodi="http://sodipodi.sourceforge.net/DTD/sodipodi-0.dtd"
   xmlns:inkscape="http://www.inkscape.org/namespaces/inkscape"
   width="100%"
   height="100%"
   viewBox="-10 -10 108 133"
   id="mangochi"
   version="1.1"
   inkscape:version="0.48.4 r9939"
   sodipodi:docname="New document 58">
  <defs
     id="defs3931" />
  <sodipodi:namedview
     id="base"
     pagecolor="#ffffff"
     bordercolor="#666666"
     borderopacity="1.0"
     inkscape:pageopacity="0.0"
     inkscape:pageshadow="2"
     inkscape:zoom="0.35"
     inkscape:cx="179.15625"
     inkscape:cy="119.51282"
     inkscape:document-units="px"
     inkscape:current-layer="layer1"
     showgrid="false"
     fit-margin-top="0"
     fit-margin-left="0"
     fit-margin-right="0"
     fit-margin-bottom="0"
     inkscape:window-width="472"
     inkscape:window-height="383"
     inkscape:window-x="65"
     inkscape:window-y="669"
     inkscape:window-maximized="0" />
  <metadata
     id="metadata3934">
    <rdf:RDF>
      <cc:Work
         rdf:about="">
        <dc:format>image/svg+xml</dc:format>
        <dc:type
           rdf:resource="http://purl.org/dc/dcmitype/StillImage" />
        <dc:title></dc:title>
      </cc:Work>
    </rdf:RDF>
  </metadata>
  <g
     inkscape:label="Layer 1"
     inkscape:groupmode="layer"
     id="layer1"
     transform="translate(-195.84375,-538.4375)">
    <path
       id="MW.MG"
       d="m 196.05,609.66933 0,-3.8 0,-0.1 5.1,-1.9 2.2,-3.6 -1.6,-2.7 0.9,-2.4 3.6,-4.3 -1.9,-4.8 0.3,-2.3 1.7,-1.1 2.7,0.8 4.2,3.7 -0.8,3.1 0.7,3.7 2,2.5 2.8,-0.7 1.9,2 2,-0.3 2.1,1.9 2.4,5.5 3,4.1 1.5,0.5 2.7,3.8 6.1,5.6 2.6,-1.8 1.2,-4 -1.4,-2.1 -3.5,-7.5 -1.2,-5.9 -3.5,-5.8 0.5,-4.4 -1,-2.5 -3.1,-4.9 -1.7,-10.9 -2.4,-3.4 -1.5,-5.7 -1.2,-1.7 -3.3,-0.7 -9.2,0.2 -2.9,-0.9 -2,-2.1 -0.4,-2.4 0.7,-5.8 -0.4,-4.1 0.8,-3.7 2.7,1.7 16.6,15.4 32.4,39.4 5.8,11.4 19.7,25.5 -4.5,2.7 -4.7,0.3 -4.4,1 -3.1,1.5 -1.6,2.5 0.4,3 -1.5,3.7 -3.2,1.5 -2.3,2.4 -2.7,0.9 -7.9,-2.8 -3.3,-4 -2,-0.8 -1.5,3.3 0.3,3.5 -24.1,-0.2 -0.9,0 -6.7,-4.5 -10.1,-13.7 -2.4,-7.3 -1.2,-6.3 z"
       inkscape:connector-curvature="0"
       style="fill:#ffffff;fill-opacity:1;stroke:#6e6e6e;stroke-width:0.40000001">
      <namespace:desc>
        <namespace:labelrank>7</namespace:labelrank>
        <namespace:hasc>MW.MG</namespace:hasc>
        <namespace:alt-name>Mangoche|Fort Johnston</namespace:alt-name>
        <namespace:woe-id>20070136</namespace:woe-id>
        <namespace:subregion>NULL</namespace:subregion>
        <namespace:fips>MI12</namespace:fips>
        <namespace:postal-code>MG</namespace:postal-code>
        <namespace:name>Mangochi</namespace:name>
        <namespace:country>Malawi</namespace:country>
        <namespace:type-en>District</namespace:type-en>
        <namespace:region>Southern</namespace:region>
        <namespace:longitude>35.3501</namespace:longitude>
        <namespace:woe-name>Mangochi</namespace:woe-name>
        <namespace:latitude>-14.374</namespace:latitude>
        <namespace:woe-label>Mangochi, MW, Malawi</namespace:woe-label>
        <namespace:type>District</namespace:type>
        <namespace:hc-middle-x>0.39</namespace:hc-middle-x>
        <namespace:hc-middle-y>0.80</namespace:hc-middle-y>
        <namespace:hc-key>mw-mg</namespace:hc-key>
        <namespace:hc-a2>MG</namespace:hc-a2>
      </namespace:desc>
    </path>
  </g>
</svg>
