<?xml version="1.0" encoding="UTF-8" standalone="no"?>
<!-- Created with Inkscape (http://www.inkscape.org/) -->

<svg
   xmlns:namespace="http://www.highcharts.com/svg/namespace"
   xmlns:dc="http://purl.org/dc/elements/1.1/"
   xmlns:cc="http://creativecommons.org/ns#"
   xmlns:rdf="http://www.w3.org/1999/02/22-rdf-syntax-ns#"
   xmlns:svg="http://www.w3.org/2000/svg"
   xmlns="http://www.w3.org/2000/svg"
   xmlns:sodipodi="http://sodipodi.sourceforge.net/DTD/sodipodi-0.dtd"
   xmlns:inkscape="http://www.inkscape.org/namespaces/inkscape"
   width="100%"
   height="100%"
   viewBox="-10 -10 81 101"
   id="mchinji"
   version="1.1"
   inkscape:version="0.48.4 r9939"
   sodipodi:docname="New document 45">
  <defs
     id="defs3738" />
  <sodipodi:namedview
     id="base"
     pagecolor="#ffffff"
     bordercolor="#666666"
     borderopacity="1.0"
     inkscape:pageopacity="0.0"
     inkscape:pageshadow="2"
     inkscape:zoom="0.35"
     inkscape:cx="145.875"
     inkscape:cy="100.66907"
     inkscape:document-units="px"
     inkscape:current-layer="layer1"
     showgrid="false"
     fit-margin-top="0"
     fit-margin-left="0"
     fit-margin-right="0"
     fit-margin-bottom="0"
     inkscape:window-width="472"
     inkscape:window-height="383"
     inkscape:window-x="65"
     inkscape:window-y="669"
     inkscape:window-maximized="0" />
  <metadata
     id="metadata3741">
    <rdf:RDF>
      <cc:Work
         rdf:about="">
        <dc:format>image/svg+xml</dc:format>
        <dc:type
           rdf:resource="http://purl.org/dc/dcmitype/StillImage" />
        <dc:title></dc:title>
      </cc:Work>
    </rdf:RDF>
  </metadata>
  <g
     inkscape:label="Layer 1"
     inkscape:groupmode="layer"
     id="layer1"
     transform="translate(-229.125,-551.84375)">
    <path
       id="MW.MC"
       d="m 288.45,578.36218 -4.5,7.7 0.2,1.8 -2.7,8.3 0.9,3.1 3.1,3.6 3.6,8.1 -0.5,3.3 0.6,2.8 -0.8,5.8 2.3,8.2 -0.2,1.6 -2.9,-2.2 -3,-4.4 0.1,-6.1 -1,-2.6 -6.8,-4.2 -1.5,-1.8 -2.7,-5.2 -2.1,-0.5 -1.7,3 -3,0.9 -2.5,2 -2.7,4.5 -1.6,0.4 -2.5,-4.1 0.4,-5.5 -3.5,-1.6 -1.1,-4.2 -5.7,-6.5 -5.9,-1.6 -2.6,-1.2 -0.5,-2.4 4.2,-2.5 0.2,-2.1 -3.3,-4.7 -2.3,-1 -6.1,-0.7 -1,-2.9 1.2,-2.5 4,0.5 3.6,-2.8 4.4,-1.3 0.5,-5.1 4.9,-2.6 1.6,-3.4 1.1,-4.9 20.7,-1.3 1,0.9 0.6,6.3 2.4,5.6 1.8,2.8 5.3,5.3 2.4,1.4 z"
       inkscape:connector-curvature="0"
       style="fill:#ffffff;fill-opacity:1;stroke:#6e6e6e;stroke-width:0.40000001">
      <namespace:desc>
        <namespace:labelrank>7</namespace:labelrank>
        <namespace:hasc>MW.MC</namespace:hasc>
        <namespace:alt-name>Fort Manning</namespace:alt-name>
        <namespace:woe-id>20070131</namespace:woe-id>
        <namespace:subregion>NULL</namespace:subregion>
        <namespace:fips>MI13</namespace:fips>
        <namespace:postal-code>MC</namespace:postal-code>
        <namespace:name>Mchinji</namespace:name>
        <namespace:country>Malawi</namespace:country>
        <namespace:type-en>District</namespace:type-en>
        <namespace:region>Central</namespace:region>
        <namespace:longitude>33.0113</namespace:longitude>
        <namespace:woe-name>Mchinji</namespace:woe-name>
        <namespace:latitude>-13.696</namespace:latitude>
        <namespace:woe-label>Mchinji, MW, Malawi</namespace:woe-label>
        <namespace:type>District</namespace:type>
        <namespace:hc-middle-x>0.52</namespace:hc-middle-x>
        <namespace:hc-middle-y>0.35</namespace:hc-middle-y>
        <namespace:hc-key>mw-mc</namespace:hc-key>
        <namespace:hc-a2>MC</namespace:hc-a2>
      </namespace:desc>
    </path>
  </g>
</svg>
