<?xml version="1.0" encoding="UTF-8" standalone="no"?>
<!-- Created with Inkscape (http://www.inkscape.org/) -->

<svg
   xmlns:namespace="http://www.highcharts.com/svg/namespace"
   xmlns:dc="http://purl.org/dc/elements/1.1/"
   xmlns:cc="http://creativecommons.org/ns#"
   xmlns:rdf="http://www.w3.org/1999/02/22-rdf-syntax-ns#"
   xmlns:svg="http://www.w3.org/2000/svg"
   xmlns="http://www.w3.org/2000/svg"
   xmlns:sodipodi="http://sodipodi.sourceforge.net/DTD/sodipodi-0.dtd"
   xmlns:inkscape="http://www.inkscape.org/namespaces/inkscape"
   width="100%"
   height="100%"
   viewBox="-10 -10 99 178"
   id="mzimba"
   version="1.1"
   inkscape:version="0.48.4 r9939"
   sodipodi:docname="New document 21">
  <defs
     id="defs3378" />
  <sodipodi:namedview
     id="base"
     pagecolor="#ffffff"
     bordercolor="#666666"
     borderopacity="1.0"
     inkscape:pageopacity="0.0"
     inkscape:pageshadow="2"
     inkscape:zoom="0.35"
     inkscape:cx="117.6875"
     inkscape:cy="119.32532"
     inkscape:document-units="px"
     inkscape:current-layer="layer1"
     showgrid="false"
     fit-margin-top="0"
     fit-margin-left="0"
     fit-margin-right="0"
     fit-margin-bottom="0"
     inkscape:window-width="472"
     inkscape:window-height="383"
     inkscape:window-x="65"
     inkscape:window-y="669"
     inkscape:window-maximized="0" />
  <metadata
     id="metadata3381">
    <rdf:RDF>
      <cc:Work
         rdf:about="">
        <dc:format>image/svg+xml</dc:format>
        <dc:type
           rdf:resource="http://purl.org/dc/dcmitype/StillImage" />
        <dc:title></dc:title>
      </cc:Work>
    </rdf:RDF>
  </metadata>
  <g
     inkscape:label="Layer 1"
     inkscape:groupmode="layer"
     id="layer1"
     transform="translate(-257.3125,-493)">
    <path
       id="MW.MZ"
       d="m 312.54286,650.36218 -2.1,1.1 -4.3,-2.6 -5.6,1.9 -4.3,-1.1 -4.4,-4.9 -2.2,0 -0.6,-4 1.4,-2.8 -2,-3.9 -0.4,-6.5 2.3,-4.1 -0.9,-2.2 -5.3,-1.2 1.1,-3.5 -6,-1.6 -6.5,2 -3.1,-1.1 -1.8,-2.7 -2.6,-9.2 -3.5,-3.6 -0.7,-1.5 0.2,-6 3.5,-8.2 1.6,-7.5 -1.3,-3.2 1.5,-8.2 -1,-14.6 -1.7,-2.8 -4.5,-0.1 -1.8,-1.3 2,-5.6 -0.4,-7.6 0.8,-1.3 2.3,1.8 0.7,-1.2 0,-3.6 2.4,-2 -0.2,-1.6 6.3,-9.6 2,-5.2 -2.9,-5 -1.9,-2 -3,-4.8 -1.1,-5.3 5.8,2.3 6.3,0.7 1.2,0.9 0.6,3.1 -0.9,3.9 1.9,0.9 3.3,-2.6 4.1,-5.1 2.1,0.1 4,2.9 5.4,-0.3 2.5,2.6 3,0.3 1.6,-2.3 -0.2,-2.7 6,-1.2 8.4,1.2 2,-0.6 0.6,-3.9 1.2,-0.9 5.7,4.6 3.5,5.4 -0.9,6.5 -2.2,7.2 0.1,2.6 2.4,1.9 2,8.2 1.6,1.9 1.1,3.4 -0.5,2.2 -4,1.6 -3.7,-0.7 -1.7,1.7 -2.5,4.7 -2.9,0.6 -3.6,-1 -2.5,0.5 -4.8,3.8 -2.4,3.4 -1,5 0,4.8 4.3,6 0.4,2.3 -2,6.3 0.7,6.5 1,3.1 -2.2,3.3 -4.4,1.7 -2.6,3.1 -0.1,1.6 3.2,1.7 2.6,2.2 5.3,0 -5.7,4.8 -1.6,2.4 0.7,4.4 1.7,1.1 2.9,0.3 2.4,1.9 1.3,2.8 2.5,3.2 1.5,5.7 2.4,2.3 3.4,0.1 3.2,1.7 3.3,0.7 3.1,-0.6 2.1,1.2 -2.4,2.6 -1.9,3.4 -3.5,0.6 -3.9,2.5 -5.6,1.4 -2.3,1.8 z"
       inkscape:connector-curvature="0"
       style="fill:#ffffff;fill-opacity:1;stroke:#6e6e6e;stroke-width:0.40000001">
      <namespace:desc>
        <namespace:labelrank>7</namespace:labelrank>
        <namespace:hasc>MW.MZ</namespace:hasc>
        <namespace:alt-name>NULL</namespace:alt-name>
        <namespace:woe-id>20070127</namespace:woe-id>
        <namespace:subregion>NULL</namespace:subregion>
        <namespace:fips>MI15</namespace:fips>
        <namespace:postal-code>MZ</namespace:postal-code>
        <namespace:name>Mzimba</namespace:name>
        <namespace:country>Malawi</namespace:country>
        <namespace:type-en>District</namespace:type-en>
        <namespace:region>Northern</namespace:region>
        <namespace:longitude>33.6587</namespace:longitude>
        <namespace:woe-name>Mzimba</namespace:woe-name>
        <namespace:latitude>-11.8792</namespace:latitude>
        <namespace:woe-label>Mzimba, MW, Malawi</namespace:woe-label>
        <namespace:type>District</namespace:type>
        <namespace:hc-middle-x>0.37</namespace:hc-middle-x>
        <namespace:hc-middle-y>0.45</namespace:hc-middle-y>
        <namespace:hc-key>mw-mz</namespace:hc-key>
        <namespace:hc-a2>MZ</namespace:hc-a2>
      </namespace:desc>
    </path>
  </g>
</svg>
