<?xml version="1.0" encoding="UTF-8" standalone="no"?>
<!-- Created with Inkscape (http://www.inkscape.org/) -->

<svg
   xmlns:namespace="http://www.highcharts.com/svg/namespace"
   xmlns:dc="http://purl.org/dc/elements/1.1/"
   xmlns:cc="http://creativecommons.org/ns#"
   xmlns:rdf="http://www.w3.org/1999/02/22-rdf-syntax-ns#"
   xmlns:svg="http://www.w3.org/2000/svg"
   xmlns="http://www.w3.org/2000/svg"
   xmlns:sodipodi="http://sodipodi.sourceforge.net/DTD/sodipodi-0.dtd"
   xmlns:inkscape="http://www.inkscape.org/namespaces/inkscape"
   width="100%"
   height="100%"
   viewBox="-10 -10 127 196"
   id="zone_s_west"
   version="1.1"
   inkscape:version="0.48.4 r9939"
   sodipodi:docname="zone_s_west.svg">
  <defs
     id="defs3265" />
  <sodipodi:namedview
     id="base"
     pagecolor="#ffffff"
     bordercolor="#666666"
     borderopacity="1.0"
     inkscape:pageopacity="0.0"
     inkscape:pageshadow="2"
     inkscape:zoom="2.8"
     inkscape:cx="100.44606"
     inkscape:cy="56.021681"
     inkscape:document-units="px"
     inkscape:current-layer="layer1"
     showgrid="false"
     fit-margin-top="0"
     fit-margin-left="0"
     fit-margin-right="0"
     fit-margin-bottom="0"
     inkscape:window-width="1855"
     inkscape:window-height="1056"
     inkscape:window-x="1985"
     inkscape:window-y="24"
     inkscape:window-maximized="1" />
  <metadata
     id="metadata3268">
    <rdf:RDF>
      <cc:Work
         rdf:about="">
        <dc:format>image/svg+xml</dc:format>
        <dc:type
           rdf:resource="http://purl.org/dc/dcmitype/StillImage" />
        <dc:title />
      </cc:Work>
    </rdf:RDF>
  </metadata>
  <g
     inkscape:label="Layer 1"
     inkscape:groupmode="layer"
     id="layer1"
     transform="translate(-211.34375,-544.5625)">
    <path
       id="MW.CK"
       d="m 267.95,680.41218 -3.7,-2.1 -2.1,-4.6 -4,-3.4 -3.5,-5.5 -6.7,-3.7 -2.1,-4.1 -2.8,-2.2 -2,-2.5 -2.4,-6.2 -1.9,-2.1 -6.9,-0.7 -1.7,-1.8 -3.5,-7.9 0.4,-3 1.7,-5.8 -0.4,-2.6 -1.4,-2 -7.2,-7.7 -5.3,-3.2 -0.9,-2.5 0.3,-6.4 1,-2.2 4,-3.9 4.3,-1.8 13.5,5.9 3.5,1.1 18.5,0.6 10,1.1 1.3,2.9 -1.6,4.1 0,2.5 -1.3,2.5 0.3,1.4 2.6,0.2 -0.4,3.2 1.4,1.6 4.9,8.1 11.5,13.5 1.1,6 -3,13.3 -7.6,8.1 -1.3,5.2 -4.1,2.8 z"
       inkscape:connector-curvature="0"
       style="fill:#ffffff;fill-opacity:1;stroke:#6e6e6e;stroke-width:0.40000001">
      <namespace:desc>
        <namespace:labelrank>8</namespace:labelrank>
        <namespace:hasc>MW.CK</namespace:hasc>
        <namespace:alt-name>NULL</namespace:alt-name>
        <namespace:woe-id>20070146</namespace:woe-id>
        <namespace:subregion>NULL</namespace:subregion>
        <namespace:fips>MI02</namespace:fips>
        <namespace:postal-code>CK</namespace:postal-code>
        <namespace:name>Chikwawa</namespace:name>
        <namespace:country>Malawi</namespace:country>
        <namespace:type-en>District</namespace:type-en>
        <namespace:region>Southern</namespace:region>
        <namespace:longitude>34.6636</namespace:longitude>
        <namespace:woe-name>Chikwawa</namespace:woe-name>
        <namespace:latitude>-16.1524</namespace:latitude>
        <namespace:woe-label>Chikwawa, MW, Malawi</namespace:woe-label>
        <namespace:type>District</namespace:type>
        <namespace:hc-middle-x>0.51</namespace:hc-middle-x>
        <namespace:hc-middle-y>0.38</namespace:hc-middle-y>
        <namespace:hc-key>mw-ck</namespace:hc-key>
        <namespace:hc-a2>CK</namespace:hc-a2>
      </namespace:desc>
    </path>
    <path
       id="MW.TH"
       d="m 304.25,636.41218 -1.9,2.2 -1.7,3.4 -0.6,4.2 1.2,3.5 -2.6,3.8 -4,-1.4 -3.4,0.5 -4.8,-5.4 -1.1,-6 -11.5,-13.5 -4.9,-8.1 2.4,-0.7 2.8,-2.4 3.8,-5.4 3.9,-0.7 9.4,-5.6 4.7,0.8 4.2,4.6 1.9,4.8 3.4,3 1,8.3 -0.4,2.6 -2.3,2.6 -0.7,3.4 z"
       inkscape:connector-curvature="0"
       style="fill:#ffffff;fill-opacity:1;stroke:#6e6e6e;stroke-width:0.40000001">
      <namespace:desc>
        <namespace:labelrank>8</namespace:labelrank>
        <namespace:hasc>MW.TH</namespace:hasc>
        <namespace:alt-name>Cholo</namespace:alt-name>
        <namespace:woe-id>20070144</namespace:woe-id>
        <namespace:subregion>NULL</namespace:subregion>
        <namespace:fips>MI05</namespace:fips>
        <namespace:postal-code>TH</namespace:postal-code>
        <namespace:name>Thyolo</namespace:name>
        <namespace:country>Malawi</namespace:country>
        <namespace:type-en>District</namespace:type-en>
        <namespace:region>Southern</namespace:region>
        <namespace:longitude>35.1071</namespace:longitude>
        <namespace:woe-name>Thyolo</namespace:woe-name>
        <namespace:latitude>-16.1135</namespace:latitude>
        <namespace:woe-label>Thyolo, MW, Malawi</namespace:woe-label>
        <namespace:type>District</namespace:type>
        <namespace:hc-middle-x>0.56</namespace:hc-middle-x>
        <namespace:hc-middle-y>0.38</namespace:hc-middle-y>
        <namespace:hc-key>mw-th</namespace:hc-key>
        <namespace:hc-a2>TH</namespace:hc-a2>
      </namespace:desc>
    </path>
    <path
       id="MW.CR"
       d="m 305.45,618.01218 -3.4,-3 -1.9,-4.8 -4.2,-4.6 -4.7,-0.8 -1.9,-3.7 -0.6,-3.4 0.3,-8.7 -1.2,-7.3 3.4,-6.1 3.9,-1.2 1.2,3.9 3.6,2.6 1.3,3.3 3.2,3.4 4,1.4 -1.8,5.1 -0.1,3.3 1.1,15 z"
       inkscape:connector-curvature="0"
       style="fill:#ffffff;fill-opacity:1;stroke:#6e6e6e;stroke-width:0.40000001">
      <namespace:desc>
        <namespace:labelrank>9</namespace:labelrank>
        <namespace:hasc>MW.CR</namespace:hasc>
        <namespace:alt-name>NULL</namespace:alt-name>
        <namespace:woe-id>20070142</namespace:woe-id>
        <namespace:subregion>NULL</namespace:subregion>
        <namespace:fips>MI03</namespace:fips>
        <namespace:postal-code>CR</namespace:postal-code>
        <namespace:name>Chiradzulu</namespace:name>
        <namespace:country>Malawi</namespace:country>
        <namespace:type-en>District</namespace:type-en>
        <namespace:region>Southern</namespace:region>
        <namespace:longitude>35.2224</namespace:longitude>
        <namespace:woe-name>Chiradzulu</namespace:woe-name>
        <namespace:latitude>-15.7358</namespace:latitude>
        <namespace:woe-label>Chiradzulu, MW, Malawi</namespace:woe-label>
        <namespace:type>District</namespace:type>
        <namespace:hc-middle-x>0.53</namespace:hc-middle-x>
        <namespace:hc-middle-y>0.50</namespace:hc-middle-y>
        <namespace:hc-key>mw-cr</namespace:hc-key>
        <namespace:hc-a2>CR</namespace:hc-a2>
      </namespace:desc>
    </path>
    <path
       id="MW.NS"
       d="m 298.65,653.51218 -0.3,4.8 -1.7,2.8 -7.3,4.8 1.4,4 2.2,3.9 3.7,1.3 5.3,5.6 0.5,7.8 2.1,5.8 -2.2,1.8 0,5.3 -0.9,2.3 3.3,2.5 -1.3,2.8 0.5,4.8 -0.1,3.4 -1.2,2.2 -4.9,0.5 -8.8,-0.4 -4.5,-0.8 -1.3,-1.3 0.3,-2.3 -2.8,-4.4 0.7,-2.8 6,-3.9 1.1,-2.5 0.2,-6.1 -0.7,-2.9 -2,-1.4 -5.4,0.1 -2.5,-0.5 -2.5,-2 -2.4,-3 -3,-1.4 -2.2,-3.9 2.5,-3.8 4.1,-2.8 1.3,-5.2 7.6,-8.1 3,-13.3 4.8,5.4 3.4,-0.5 z"
       inkscape:connector-curvature="0"
       style="fill:#ffffff;fill-opacity:1;stroke:#6e6e6e;stroke-width:0.40000001">
      <namespace:desc>
        <namespace:labelrank>7</namespace:labelrank>
        <namespace:hasc>MW.NS</namespace:hasc>
        <namespace:alt-name>Port Herald</namespace:alt-name>
        <namespace:woe-id>20070145</namespace:woe-id>
        <namespace:subregion>NULL</namespace:subregion>
        <namespace:fips>MI19</namespace:fips>
        <namespace:postal-code>NS</namespace:postal-code>
        <namespace:name>Nsanje</namespace:name>
        <namespace:country>Malawi</namespace:country>
        <namespace:type-en>District</namespace:type-en>
        <namespace:region>Southern</namespace:region>
        <namespace:longitude>35.1003</namespace:longitude>
        <namespace:woe-name>Nsanje</namespace:woe-name>
        <namespace:latitude>-17.0479</namespace:latitude>
        <namespace:woe-label>Nsanje, MW, Malawi</namespace:woe-label>
        <namespace:type>District</namespace:type>
        <namespace:hc-middle-x>0.60</namespace:hc-middle-x>
        <namespace:hc-middle-y>0.46</namespace:hc-middle-y>
        <namespace:hc-key>mw-ns</namespace:hc-key>
        <namespace:hc-a2>NS</namespace:hc-a2>
      </namespace:desc>
    </path>
    <path
       id="MW.BL"
       d="m 291.25,575.61218 -3.4,6.1 1.2,7.3 -0.3,8.7 0.6,3.4 1.9,3.7 -9.4,5.6 -3.9,0.7 -3.8,5.4 -2.8,2.4 -2.4,0.7 -1.4,-1.6 0.4,-3.2 -2.6,-0.2 -0.3,-1.4 1.3,-2.5 0,-2.5 1.6,-4.1 -1.3,-2.9 -10,-1.1 -0.4,-6.7 -0.6,-3.2 2.5,-2.6 -0.2,-5.6 1.3,-2.6 5.8,-3.2 1.3,-2.2 3.3,-9.3 1.5,-2.1 3.3,-2.4 5.5,-1.5 1.7,3.4 2,1.7 4.5,6 2.9,0.3 -2.5,4.1 z"
       inkscape:connector-curvature="0"
       style="fill:#ffffff;fill-opacity:1;stroke:#6e6e6e;stroke-width:0.40000001">
      <namespace:desc>
        <namespace:labelrank>7</namespace:labelrank>
        <namespace:hasc>MW.BL</namespace:hasc>
        <namespace:alt-name>NULL</namespace:alt-name>
        <namespace:woe-id>20070143</namespace:woe-id>
        <namespace:subregion>NULL</namespace:subregion>
        <namespace:fips>MI24</namespace:fips>
        <namespace:postal-code>BL</namespace:postal-code>
        <namespace:name>Blantyre</namespace:name>
        <namespace:country>Malawi</namespace:country>
        <namespace:type-en>District</namespace:type-en>
        <namespace:region>Southern</namespace:region>
        <namespace:longitude>34.9413</namespace:longitude>
        <namespace:woe-name>Blantyre</namespace:woe-name>
        <namespace:latitude>-15.6875</namespace:latitude>
        <namespace:woe-label>Blantyre, MW, Malawi</namespace:woe-label>
        <namespace:type>District</namespace:type>
        <namespace:hc-middle-x>0.55</namespace:hc-middle-x>
        <namespace:hc-middle-y>0.48</namespace:hc-middle-y>
        <namespace:hc-key>mw-bl</namespace:hc-key>
        <namespace:hc-a2>BL</namespace:hc-a2>
      </namespace:desc>
    </path>
    <path
       id="MW.1649"
       d="m 257.95,582.01218 0.2,5.6 -2.5,2.6 0.6,3.2 0.4,6.7 -18.5,-0.6 -3.5,-1.1 -13.5,-5.9 5.5,-7.5 1,-2.9 0.3,-3.6 10.4,1.2 z"
       inkscape:connector-curvature="0"
       style="fill:#ffffff;fill-opacity:1;stroke:#6e6e6e;stroke-width:0.40000001">
      <namespace:desc>
        <namespace:labelrank>7</namespace:labelrank>
        <namespace:hasc>MW.MW</namespace:hasc>
        <namespace:alt-name>NULL</namespace:alt-name>
        <namespace:woe-id>20070139</namespace:woe-id>
        <namespace:subregion>NULL</namespace:subregion>
        <namespace:fips>MI25</namespace:fips>
        <namespace:postal-code>NULL</namespace:postal-code>
        <namespace:name>Mwanza</namespace:name>
        <namespace:country>Malawi</namespace:country>
        <namespace:type-en>District</namespace:type-en>
        <namespace:region>Southern</namespace:region>
        <namespace:longitude>34.5126</namespace:longitude>
        <namespace:woe-name>Mwanza</namespace:woe-name>
        <namespace:latitude>-15.6394</namespace:latitude>
        <namespace:woe-label>NULL</namespace:woe-label>
        <namespace:type>District</namespace:type>
        <namespace:hc-middle-x>0.50</namespace:hc-middle-x>
        <namespace:hc-middle-y>0.52</namespace:hc-middle-y>
        <namespace:hc-key>mw-1649</namespace:hc-key>
        <namespace:hc-a2>MW</namespace:hc-a2>
      </namespace:desc>
    </path>
    <path
       id="MW.MW"
       d="m 265.25,555.21218 18.5,1.2 -3.8,2.3 -5.5,1.5 -3.3,2.4 -1.5,2.1 -3.3,9.3 -1.3,2.2 -5.8,3.2 -1.3,2.6 -19.6,-2.3 -10.4,-1.2 -0.7,-5.4 0,-3 2.7,-2.3 1.7,-2.8 1.8,-1.1 1.4,-4.5 4.4,-3.5 1.7,-2.3 0.3,-2.4 -0.8,-6.4 5.3,1 5.2,1.6 1.9,-0.2 6,1.4 3.8,2.3 0.6,5.3 z"
       inkscape:connector-curvature="0"
       style="fill:#ffffff;fill-opacity:1;stroke:#6e6e6e;stroke-width:0.40000001">
      <namespace:desc>
        <namespace:labelrank>7</namespace:labelrank>
        <namespace:hasc>MW.MW</namespace:hasc>
        <namespace:alt-name>NULL</namespace:alt-name>
        <namespace:woe-id>20070139</namespace:woe-id>
        <namespace:subregion>NULL</namespace:subregion>
        <namespace:fips>MI31</namespace:fips>
        <namespace:postal-code>MW</namespace:postal-code>
        <namespace:name>Neno</namespace:name>
        <namespace:country>Malawi</namespace:country>
        <namespace:type-en>District</namespace:type-en>
        <namespace:region>Southern</namespace:region>
        <namespace:longitude>34.6946</namespace:longitude>
        <namespace:woe-name>Mwanza</namespace:woe-name>
        <namespace:latitude>-15.4366</namespace:latitude>
        <namespace:woe-label>NULL</namespace:woe-label>
        <namespace:type>District</namespace:type>
        <namespace:hc-middle-x>0.37</namespace:hc-middle-x>
        <namespace:hc-middle-y>0.53</namespace:hc-middle-y>
        <namespace:hc-key>mw-mw</namespace:hc-key>
        <namespace:hc-a2>MW</namespace:hc-a2>
      </namespace:desc>
    </path>
  </g>
</svg>
