<?xml version="1.0" encoding="UTF-8" standalone="no"?>
<!-- Created with Inkscape (http://www.inkscape.org/) -->

<svg
   xmlns:namespace="http://www.highcharts.com/svg/namespace"
   xmlns:dc="http://purl.org/dc/elements/1.1/"
   xmlns:cc="http://creativecommons.org/ns#"
   xmlns:rdf="http://www.w3.org/1999/02/22-rdf-syntax-ns#"
   xmlns:svg="http://www.w3.org/2000/svg"
   xmlns="http://www.w3.org/2000/svg"
   xmlns:sodipodi="http://sodipodi.sourceforge.net/DTD/sodipodi-0.dtd"
   xmlns:inkscape="http://www.inkscape.org/namespaces/inkscape"
   width="100%"
   height="100%"
   viewBox="-10 -10 184 322"
   id="zone_northern"
   version="1.1"
   inkscape:version="0.48.4 r9939"
   sodipodi:docname="zone_northern.svg">
  <defs
     id="defs3033" />
  <sodipodi:namedview
     id="base"
     pagecolor="#ffffff"
     bordercolor="#666666"
     borderopacity="1.0"
     inkscape:pageopacity="0.0"
     inkscape:pageshadow="2"
     inkscape:zoom="1.979899"
     inkscape:cx="106.43773"
     inkscape:cy="156.59987"
     inkscape:document-units="px"
     inkscape:current-layer="layer2"
     showgrid="false"
     fit-margin-top="0"
     fit-margin-left="0"
     fit-margin-right="0"
     fit-margin-bottom="0"
     inkscape:window-width="1855"
     inkscape:window-height="1056"
     inkscape:window-x="1985"
     inkscape:window-y="24"
     inkscape:window-maximized="1" />
  <metadata
     id="metadata3036">
    <rdf:RDF>
      <cc:Work
         rdf:about="">
        <dc:format>image/svg+xml</dc:format>
        <dc:type
           rdf:resource="http://purl.org/dc/dcmitype/StillImage" />
        <dc:title />
      </cc:Work>
    </rdf:RDF>
  </metadata>
  <g
     inkscape:label="Layer 1"
     inkscape:groupmode="layer"
     id="layer1"
     transform="translate(-212.59375,-410.15625)"
     sodipodi:insensitive="true">
    <path
       id="MW.6970"
       d="m 374.18571,654.78361 -1.9,0.2 -1.4,-1.2 2.4,-4.3 2.5,1.3 -1.4,0.7 z"
       inkscape:connector-curvature="0"
       style="fill:#ffffff;fill-opacity:1;stroke:#6e6e6e;stroke-width:0.40000001">
      <namespace:desc>
        <namespace:labelrank>7</namespace:labelrank>
        <namespace:hasc>MW.NA</namespace:hasc>
        <namespace:alt-name>NULL</namespace:alt-name>
        <namespace:woe-id>20070147</namespace:woe-id>
        <namespace:subregion>NULL</namespace:subregion>
        <namespace:fips>MI17</namespace:fips>
        <namespace:postal-code>NULL</namespace:postal-code>
        <namespace:name>Likoma</namespace:name>
        <namespace:country>Malawi</namespace:country>
        <namespace:type-en>District</namespace:type-en>
        <namespace:region>Northern</namespace:region>
        <namespace:longitude>34.706</namespace:longitude>
        <namespace:woe-name>Nkhata Bay</namespace:woe-name>
        <namespace:latitude>-12.0727</namespace:latitude>
        <namespace:woe-label>Nkhata Bay, MW, Malawi</namespace:woe-label>
        <namespace:type>District</namespace:type>
        <namespace:hc-middle-x>0.52</namespace:hc-middle-x>
        <namespace:hc-middle-y>0.56</namespace:hc-middle-y>
        <namespace:hc-key>mw-6970</namespace:hc-key>
        <namespace:hc-a2>LI</namespace:hc-a2>
      </namespace:desc>
    </path>
    <path
       id="MW.NA"
       d="m 329.58571,553.58361 -0.3,8.3 0.6,2.9 1.2,1.7 -2.4,4.4 -0.7,2.3 1.5,3.2 0,4.6 2.2,2.2 1.8,5.1 0.6,11.3 1.7,6.4 -0.1,2.6 1.9,5.6 -0.8,4.7 -5.6,5.1 -0.6,1.6 -4,2.8 -1.7,4.7 0,2.6 1.1,1.8 -10.1,7.7 -1.7,3.1 -3,16.7 -6.6,-1.6 -3.6,-1.6 -3.1,-2.5 -3.3,0.1 -5.3,0 -2.6,-2.2 -3.2,-1.7 0.1,-1.6 2.6,-3.1 4.4,-1.7 2.2,-3.3 -1,-3.1 -0.7,-6.5 2,-6.3 -0.4,-2.3 -4.3,-6 0,-4.8 1,-5 2.4,-3.4 4.8,-3.8 2.5,-0.5 3.6,1 2.9,-0.6 2.5,-4.7 1.7,-1.7 3.7,0.7 4,-1.6 0.5,-2.2 -1.1,-3.4 -1.6,-1.9 -2,-8.2 -2.4,-1.9 -0.1,-2.6 2.2,-7.2 0.9,-6.5 12.4,-7.1 z"
       inkscape:connector-curvature="0"
       style="fill:#ffffff;fill-opacity:1;stroke:#6e6e6e;stroke-width:0.40000001">
      <namespace:desc>
        <namespace:labelrank>7</namespace:labelrank>
        <namespace:hasc>MW.NA</namespace:hasc>
        <namespace:alt-name>Chinteche</namespace:alt-name>
        <namespace:woe-id>20070147</namespace:woe-id>
        <namespace:subregion>NULL</namespace:subregion>
        <namespace:fips>MI17</namespace:fips>
        <namespace:postal-code>NA</namespace:postal-code>
        <namespace:name>Nkhata Bay</namespace:name>
        <namespace:country>Malawi</namespace:country>
        <namespace:type-en>District</namespace:type-en>
        <namespace:region>Northern</namespace:region>
        <namespace:longitude>34.1604</namespace:longitude>
        <namespace:woe-name>Nkhata Bay</namespace:woe-name>
        <namespace:latitude>-11.6281</namespace:latitude>
        <namespace:woe-label>Nkhata Bay, MW, Malawi</namespace:woe-label>
        <namespace:type>District</namespace:type>
        <namespace:hc-middle-x>0.52</namespace:hc-middle-x>
        <namespace:hc-middle-y>0.61</namespace:hc-middle-y>
        <namespace:hc-key>mw-na</namespace:hc-key>
        <namespace:hc-a2>NA</namespace:hc-a2>
      </namespace:desc>
    </path>
    <path
       id="MW.RU"
       d="m 325.58571,518.98361 2.1,3.7 -0.7,5.6 1.3,4.9 1.4,17.3 -0.1,3.1 -3.3,2.6 -12.4,7.1 -3.5,-5.4 -5.7,-4.6 -1.2,0.9 -0.6,3.9 -2,0.6 -8.4,-1.2 -6,1.2 0.2,2.7 -1.6,2.3 -3,-0.3 -2.5,-2.6 -5.4,0.3 -4,-2.9 -2.1,-0.1 -4.1,5.1 -3.3,2.6 -1.9,-0.9 0.9,-3.9 -0.6,-3.1 -1.2,-0.9 -6.3,-0.7 -5.8,-2.3 -0.9,-5.6 -1.3,-1.1 -3.1,-0.3 0.9,-2.9 4.2,-0.8 2.7,-3.5 5.9,-1.5 4.4,0.6 2.8,-2.1 3.1,-1.4 2.5,-5.1 4.3,-4.9 7.2,-5.1 1.5,-2.5 2.5,-1 22,-9.9 12.6,10.7 1.9,1.2 2.6,-0.7 z"
       inkscape:connector-curvature="0"
       style="fill:#ffffff;fill-opacity:1;stroke:#6e6e6e;stroke-width:0.40000001">
      <namespace:desc>
        <namespace:labelrank>8</namespace:labelrank>
        <namespace:hasc>MW.RU</namespace:hasc>
        <namespace:alt-name>Rumpi</namespace:alt-name>
        <namespace:woe-id>20070126</namespace:woe-id>
        <namespace:subregion>NULL</namespace:subregion>
        <namespace:fips>MI21</namespace:fips>
        <namespace:postal-code>RU</namespace:postal-code>
        <namespace:name>Rumphi</namespace:name>
        <namespace:country>Malawi</namespace:country>
        <namespace:type-en>District</namespace:type-en>
        <namespace:region>Northern</namespace:region>
        <namespace:longitude>33.953</namespace:longitude>
        <namespace:woe-name>Rumphi</namespace:woe-name>
        <namespace:latitude>-10.7114</namespace:latitude>
        <namespace:woe-label>Rumphi, MW, Malawi</namespace:woe-label>
        <namespace:type>District</namespace:type>
        <namespace:hc-middle-x>0.64</namespace:hc-middle-x>
        <namespace:hc-middle-y>0.47</namespace:hc-middle-y>
        <namespace:hc-key>mw-ru</namespace:hc-key>
        <namespace:hc-a2>RU</namespace:hc-a2>
      </namespace:desc>
    </path>
    <path
       id="MW.1011"
       d="m 325.58571,518.98361 -4,-0.9 -2.6,0.7 -1.9,-1.2 -12.6,-10.7 -20.3,-31.7 -2.3,-3.2 -5.3,0.3 -5.7,-3.9 -2.5,-0.4 -5.1,-4.4 0,-3.1 2.3,-0.7 7.5,-4.6 3.2,-4.5 3.5,-3.2 2.2,-0.5 0.4,-1.5 -2.2,-7.5 0.3,-2.6 -2.5,-4.3 2.4,-0.3 5.2,-2.1 4.7,3.8 7,3.9 4.1,4.4 -1.1,3.6 0.7,6.2 2.1,5 1.9,0.7 0.2,3.9 1,6.2 2.6,6 7.3,10.7 5,5 4.2,3.3 1,2.7 4.2,5 2.8,6.9 -2.5,1.2 -2,2.1 0.7,5 -3.4,2.5 z"
       inkscape:connector-curvature="0"
       style="fill:#ffffff;fill-opacity:1;stroke:#6e6e6e;stroke-width:0.40000001">
      <namespace:desc>
        <namespace:labelrank>8</namespace:labelrank>
        <namespace:hasc>MW.CT</namespace:hasc>
        <namespace:alt-name>NULL</namespace:alt-name>
        <namespace:woe-id>20070125</namespace:woe-id>
        <namespace:subregion>NULL</namespace:subregion>
        <namespace:fips>MI08</namespace:fips>
        <namespace:postal-code>NULL</namespace:postal-code>
        <namespace:name>Chitipa</namespace:name>
        <namespace:country>Malawi</namespace:country>
        <namespace:type-en>District</namespace:type-en>
        <namespace:region>NULL</namespace:region>
        <namespace:longitude>33.8876</namespace:longitude>
        <namespace:woe-name>Chitipa</namespace:woe-name>
        <namespace:latitude>-10.0267</namespace:latitude>
        <namespace:woe-label>Karonga, MW, Malawi</namespace:woe-label>
        <namespace:type>District</namespace:type>
        <namespace:hc-middle-x>0.63</namespace:hc-middle-x>
        <namespace:hc-middle-y>0.66</namespace:hc-middle-y>
        <namespace:hc-key>mw-1011</namespace:hc-key>
        <namespace:hc-a2>CH</namespace:hc-a2>
      </namespace:desc>
    </path>
    <path
       id="MW.CT"
       d="m 304.48571,506.88361 -22,9.9 -2.5,1 -0.8,-5.2 -2.4,-0.3 -1.4,-1.6 -1.7,-4.1 -3.9,-4 -2.4,-5.6 -0.3,-2.2 0.6,-5 -0.2,-2.8 -4.7,-4.9 -2.3,-0.8 -5,-4.6 -7.3,-3.2 -1.2,-1.7 0.6,-4.6 1.7,-4.2 3.3,-6 -0.6,-2.5 -2,-4.3 -5.5,-2.7 -2,-3.6 -3.2,-2.4 -1.1,-2.6 1,-2.6 -1.8,-4.8 -1.8,-1.2 -4.8,-0.3 -2.1,-1 -0.8,5 -0.8,1.7 -2,-0.8 -2,-3.3 -3.2,1.4 -2.3,-2.8 1.6,-6.5 0,-2.5 -2.7,-1.9 -2.2,0.6 -1.3,-1.9 -0.2,-5.3 3.1,-2.3 3.3,0.8 4.5,4.5 5.5,4.2 6.2,2.1 2.6,-1.6 4.9,0.5 2.3,-1.1 1.6,0.5 6.6,5.2 2.6,5 3.1,1.5 3.8,0.3 2.7,-0.7 4.3,-2.1 8.1,1.6 2.5,4.3 -0.3,2.6 2.2,7.5 -0.4,1.5 -2.2,0.5 -3.5,3.2 -3.2,4.5 -7.5,4.6 -2.3,0.7 0,3.1 5.1,4.4 2.5,0.4 5.7,3.9 5.3,-0.3 2.3,3.2 z"
       inkscape:connector-curvature="0"
       style="fill:#ffffff;fill-opacity:1;stroke:#6e6e6e;stroke-width:0.40000001">
      <namespace:desc>
        <namespace:labelrank>8</namespace:labelrank>
        <namespace:hasc>MW.CT</namespace:hasc>
        <namespace:alt-name>NULL</namespace:alt-name>
        <namespace:woe-id>20070124</namespace:woe-id>
        <namespace:subregion>NULL</namespace:subregion>
        <namespace:fips>MI04</namespace:fips>
        <namespace:postal-code>CT</namespace:postal-code>
        <namespace:name>Chitipa</namespace:name>
        <namespace:country>Malawi</namespace:country>
        <namespace:type-en>District</namespace:type-en>
        <namespace:region>NULL</namespace:region>
        <namespace:longitude>33.4345</namespace:longitude>
        <namespace:woe-name>Chitipa</namespace:woe-name>
        <namespace:latitude>-9.885719999999999</namespace:latitude>
        <namespace:woe-label>Chitipa, MW, Malawi</namespace:woe-label>
        <namespace:type>District</namespace:type>
        <namespace:hc-middle-x>0.75</namespace:hc-middle-x>
        <namespace:hc-middle-y>0.80</namespace:hc-middle-y>
        <namespace:hc-key>mw-ct</namespace:hc-key>
        <namespace:hc-a2>CT</namespace:hc-a2>
      </namespace:desc>
    </path>
    <path
       id="MW.MZ"
       d="m 293.78571,710.38361 -2.1,1.1 -4.3,-2.6 -5.6,1.9 -4.3,-1.1 -4.4,-4.9 -2.2,0 -0.6,-4 1.4,-2.8 -2,-3.9 -0.4,-6.5 2.3,-4.1 -0.9,-2.2 -5.3,-1.2 1.1,-3.5 -6,-1.6 -6.5,2 -3.1,-1.1 -1.8,-2.7 -2.6,-9.2 -3.5,-3.6 -0.7,-1.5 0.2,-6 3.5,-8.2 1.6,-7.5 -1.3,-3.2 1.5,-8.2 -1,-14.6 -1.7,-2.8 -4.5,-0.1 -1.8,-1.3 2,-5.6 -0.4,-7.6 0.8,-1.3 2.3,1.8 0.7,-1.2 0,-3.6 2.4,-2 -0.2,-1.6 6.3,-9.6 2,-5.2 -2.9,-5 -1.9,-2 -3,-4.8 -1.1,-5.3 5.8,2.3 6.3,0.7 1.2,0.9 0.6,3.1 -0.9,3.9 1.9,0.9 3.3,-2.6 4.1,-5.1 2.1,0.1 4,2.9 5.4,-0.3 2.5,2.6 3,0.3 1.6,-2.3 -0.2,-2.7 6,-1.2 8.4,1.2 2,-0.6 0.6,-3.9 1.2,-0.9 5.7,4.6 3.5,5.4 -0.9,6.5 -2.2,7.2 0.1,2.6 2.4,1.9 2,8.2 1.6,1.9 1.1,3.4 -0.5,2.2 -4,1.6 -3.7,-0.7 -1.7,1.7 -2.5,4.7 -2.9,0.6 -3.6,-1 -2.5,0.5 -4.8,3.8 -2.4,3.4 -1,5 0,4.8 4.3,6 0.4,2.3 -2,6.3 0.7,6.5 1,3.1 -2.2,3.3 -4.4,1.7 -2.6,3.1 -0.1,1.6 3.2,1.7 2.6,2.2 5.3,0 -5.7,4.8 -1.6,2.4 0.7,4.4 1.7,1.1 2.9,0.3 2.4,1.9 1.3,2.8 2.5,3.2 1.5,5.7 2.4,2.3 3.4,0.1 3.2,1.7 3.3,0.7 3.1,-0.6 2.1,1.2 -2.4,2.6 -1.9,3.4 -3.5,0.6 -3.9,2.5 -5.6,1.4 -2.3,1.8 z"
       inkscape:connector-curvature="0"
       style="fill:#ffffff;fill-opacity:1;stroke:#6e6e6e;stroke-width:0.40000001">
      <namespace:desc>
        <namespace:labelrank>7</namespace:labelrank>
        <namespace:hasc>MW.MZ</namespace:hasc>
        <namespace:alt-name>NULL</namespace:alt-name>
        <namespace:woe-id>20070127</namespace:woe-id>
        <namespace:subregion>NULL</namespace:subregion>
        <namespace:fips>MI15</namespace:fips>
        <namespace:postal-code>MZ</namespace:postal-code>
        <namespace:name>Mzimba</namespace:name>
        <namespace:country>Malawi</namespace:country>
        <namespace:type-en>District</namespace:type-en>
        <namespace:region>Northern</namespace:region>
        <namespace:longitude>33.6587</namespace:longitude>
        <namespace:woe-name>Mzimba</namespace:woe-name>
        <namespace:latitude>-11.8792</namespace:latitude>
        <namespace:woe-label>Mzimba, MW, Malawi</namespace:woe-label>
        <namespace:type>District</namespace:type>
        <namespace:hc-middle-x>0.37</namespace:hc-middle-x>
        <namespace:hc-middle-y>0.45</namespace:hc-middle-y>
        <namespace:hc-key>mw-mz</namespace:hc-key>
        <namespace:hc-a2>MZ</namespace:hc-a2>
      </namespace:desc>
    </path>
  </g>
  <g
     inkscape:groupmode="layer"
     id="layer2"
     inkscape:label="Layer" />
</svg>
