<?xml version="1.0" encoding="UTF-8" standalone="no"?>
<!-- Created with Inkscape (http://www.inkscape.org/) -->

<svg
   xmlns:namespace="http://www.highcharts.com/svg/namespace"
   xmlns:dc="http://purl.org/dc/elements/1.1/"
   xmlns:cc="http://creativecommons.org/ns#"
   xmlns:rdf="http://www.w3.org/1999/02/22-rdf-syntax-ns#"
   xmlns:svg="http://www.w3.org/2000/svg"
   xmlns="http://www.w3.org/2000/svg"
   xmlns:sodipodi="http://sodipodi.sourceforge.net/DTD/sodipodi-0.dtd"
   xmlns:inkscape="http://www.inkscape.org/namespaces/inkscape"
   width="100%"
   height="100%"
   viewBox="-10 -10 121 264"
   id="zone_s_east"
   version="1.1"
   inkscape:version="0.48.4 r9939"
   sodipodi:docname="zone_s_east.svg">
  <defs
     id="defs3204" />
  <sodipodi:namedview
     id="base"
     pagecolor="#ffffff"
     bordercolor="#666666"
     borderopacity="1.0"
     inkscape:pageopacity="0.0"
     inkscape:pageshadow="2"
     inkscape:zoom="2.8"
     inkscape:cx="-82.642858"
     inkscape:cy="120.88692"
     inkscape:document-units="px"
     inkscape:current-layer="layer2"
     showgrid="false"
     fit-margin-top="0"
     fit-margin-left="0"
     fit-margin-right="0"
     fit-margin-bottom="0"
     inkscape:window-width="1855"
     inkscape:window-height="1056"
     inkscape:window-x="1985"
     inkscape:window-y="24"
     inkscape:window-maximized="1" />
  <metadata
     id="metadata3207">
    <rdf:RDF>
      <cc:Work
         rdf:about="">
        <dc:format>image/svg+xml</dc:format>
        <dc:type
           rdf:resource="http://purl.org/dc/dcmitype/StillImage" />
        <dc:title />
      </cc:Work>
    </rdf:RDF>
  </metadata>
  <g
     inkscape:label="Layer 1"
     inkscape:groupmode="layer"
     id="layer1"
     transform="translate(-183.59375,-441.8125)"
     sodipodi:insensitive="true">
    <path
       id="MW.MA"
       d="m 271.68571,535.54075 3.1,4.1 4.3,4.4 1.5,2.9 0.6,18.9 3.6,0.9 -10.2,23.4 -0.7,2.2 0.4,3.6 -22.6,-0.7 -1.7,1.3 -3.9,1.6 -2.1,0.1 -6.1,-2.4 -2.7,-0.3 -4.1,2.9 -4.8,-1 -3.4,2.1 -1.5,-0.4 -1.1,-2.1 1.4,-2.2 2.2,-7.6 1.6,-3.1 1.1,-4.2 2.7,-4.1 2.3,-1.8 0.6,-1.9 0.9,-7.3 -0.1,-4.2 -1,-3.9 -2.3,-2.5 -0.3,-3.5 1.5,-3.3 2,0.8 3.3,4 7.9,2.8 2.7,-0.9 2.3,-2.4 3.2,-1.5 1.5,-3.7 -0.4,-3 1.6,-2.5 3.1,-1.5 4.4,-1 4.7,-0.3 z"
       inkscape:connector-curvature="0"
       style="fill:#ffffff;fill-opacity:1;stroke:#6e6e6e;stroke-width:0.40000001">
      <namespace:desc>
        <namespace:labelrank>7</namespace:labelrank>
        <namespace:hasc>MW.MA</namespace:hasc>
        <namespace:alt-name>Kasupe|Kasupi|Liwonde</namespace:alt-name>
        <namespace:woe-id>20070138</namespace:woe-id>
        <namespace:subregion>NULL</namespace:subregion>
        <namespace:fips>MI28</namespace:fips>
        <namespace:postal-code>MA</namespace:postal-code>
        <namespace:name>Machinga</namespace:name>
        <namespace:country>Malawi</namespace:country>
        <namespace:type-en>District</namespace:type-en>
        <namespace:region>NULL</namespace:region>
        <namespace:longitude>35.5384</namespace:longitude>
        <namespace:woe-name>Machinga</namespace:woe-name>
        <namespace:latitude>-14.9533</namespace:latitude>
        <namespace:woe-label>Machinga, MW, Malawi</namespace:woe-label>
        <namespace:type>District</namespace:type>
        <namespace:hc-middle-x>0.49</namespace:hc-middle-x>
        <namespace:hc-middle-y>0.60</namespace:hc-middle-y>
        <namespace:hc-key>mw-ma</namespace:hc-key>
        <namespace:hc-a2>MA</namespace:hc-a2>
      </namespace:desc>
    </path>
    <path
       id="MW.MG"
       d="m 183.78571,513.04075 0,-3.8 0,-0.1 5.1,-1.9 2.2,-3.6 -1.6,-2.7 0.9,-2.4 3.6,-4.3 -1.9,-4.8 0.3,-2.3 1.7,-1.1 2.7,0.8 4.2,3.7 -0.8,3.1 0.7,3.7 2,2.5 2.8,-0.7 1.9,2 2,-0.3 2.1,1.9 2.4,5.5 3,4.1 1.5,0.5 2.7,3.8 6.1,5.6 2.6,-1.8 1.2,-4 -1.4,-2.1 -3.5,-7.5 -1.2,-5.9 -3.5,-5.8 0.5,-4.4 -1,-2.5 -3.1,-4.9 -1.7,-10.9 -2.4,-3.4 -1.5,-5.7 -1.2,-1.7 -3.3,-0.7 -9.2,0.2 -2.9,-0.9 -2,-2.1 -0.4,-2.4 0.7,-5.8 -0.4,-4.1 0.8,-3.7 2.7,1.7 16.6,15.4 32.4,39.4 5.8,11.4 19.7,25.5 -4.5,2.7 -4.7,0.3 -4.4,1 -3.1,1.5 -1.6,2.5 0.4,3 -1.5,3.7 -3.2,1.5 -2.3,2.4 -2.7,0.9 -7.9,-2.8 -3.3,-4 -2,-0.8 -1.5,3.3 0.3,3.5 -24.1,-0.2 -0.9,0 -6.7,-4.5 -10.1,-13.7 -2.4,-7.3 -1.2,-6.3 z"
       inkscape:connector-curvature="0"
       style="fill:#ffffff;fill-opacity:1;stroke:#6e6e6e;stroke-width:0.40000001">
      <namespace:desc>
        <namespace:labelrank>7</namespace:labelrank>
        <namespace:hasc>MW.MG</namespace:hasc>
        <namespace:alt-name>Mangoche|Fort Johnston</namespace:alt-name>
        <namespace:woe-id>20070136</namespace:woe-id>
        <namespace:subregion>NULL</namespace:subregion>
        <namespace:fips>MI12</namespace:fips>
        <namespace:postal-code>MG</namespace:postal-code>
        <namespace:name>Mangochi</namespace:name>
        <namespace:country>Malawi</namespace:country>
        <namespace:type-en>District</namespace:type-en>
        <namespace:region>Southern</namespace:region>
        <namespace:longitude>35.3501</namespace:longitude>
        <namespace:woe-name>Mangochi</namespace:woe-name>
        <namespace:latitude>-14.374</namespace:latitude>
        <namespace:woe-label>Mangochi, MW, Malawi</namespace:woe-label>
        <namespace:type>District</namespace:type>
        <namespace:hc-middle-x>0.39</namespace:hc-middle-x>
        <namespace:hc-middle-y>0.80</namespace:hc-middle-y>
        <namespace:hc-key>mw-mg</namespace:hc-key>
        <namespace:hc-a2>MG</namespace:hc-a2>
      </namespace:desc>
    </path>
    <path
       id="MW.BA"
       d="m 229.68571,554.24075 2.3,2.5 1,3.9 0.1,4.2 -0.9,7.3 -0.6,1.9 -2.3,1.8 -2.7,4.1 -1.1,4.2 -1.6,3.1 -2.2,7.6 -1.4,2.2 -4,3.6 -2.9,3.9 -3.5,0.9 -18.5,-1.2 6.7,-28.9 0.1,-3.3 4.5,-6.1 1.9,-5.9 -0.4,-4.9 0.5,-1.1 0.9,0 z"
       inkscape:connector-curvature="0"
       style="fill:#ffffff;fill-opacity:1;stroke:#6e6e6e;stroke-width:0.40000001">
      <namespace:desc>
        <namespace:labelrank>8</namespace:labelrank>
        <namespace:hasc>MW.BA</namespace:hasc>
        <namespace:alt-name>NULL</namespace:alt-name>
        <namespace:woe-id>1500503</namespace:woe-id>
        <namespace:subregion>NULL</namespace:subregion>
        <namespace:fips>MI26</namespace:fips>
        <namespace:postal-code>BA</namespace:postal-code>
        <namespace:name>Balaka</namespace:name>
        <namespace:country>Malawi</namespace:country>
        <namespace:type-en>District</namespace:type-en>
        <namespace:region>Southern</namespace:region>
        <namespace:longitude>35.0792</namespace:longitude>
        <namespace:woe-name>Balaka</namespace:woe-name>
        <namespace:latitude>-15.037</namespace:latitude>
        <namespace:woe-label>NULL</namespace:woe-label>
        <namespace:type>District</namespace:type>
        <namespace:hc-middle-x>0.53</namespace:hc-middle-x>
        <namespace:hc-middle-y>0.50</namespace:hc-middle-y>
        <namespace:hc-key>mw-ba</namespace:hc-key>
        <namespace:hc-a2>BA</namespace:hc-a2>
      </namespace:desc>
    </path>
    <path
       id="MW.ZO"
       d="m 274.28571,595.94075 4.3,18.6 -0.3,3.8 -10,0.3 -5.5,1.9 -3.4,3.2 -7.3,4.8 -1.2,2.8 -2.8,2 -2.6,3 -6.6,0.7 -4.3,1 -4,-1.4 -3.2,-3.4 -1.3,-3.3 -3.6,-2.6 -1.2,-3.9 -3.9,1.2 -2.7,-1.4 2.5,-4.1 -2.9,-0.3 -4.5,-6 -2,-1.7 -1.7,-3.4 3.8,-2.3 3.5,-0.9 2.9,-3.9 4,-3.6 1.1,2.1 1.5,0.4 3.4,-2.1 4.8,1 4.1,-2.9 2.7,0.3 6.1,2.4 2.1,-0.1 3.9,-1.6 1.7,-1.3 z"
       inkscape:connector-curvature="0"
       style="fill:#ffffff;fill-opacity:1;stroke:#6e6e6e;stroke-width:0.40000001">
      <namespace:desc>
        <namespace:labelrank>8</namespace:labelrank>
        <namespace:hasc>MW.ZO</namespace:hasc>
        <namespace:alt-name>NULL</namespace:alt-name>
        <namespace:woe-id>20070140</namespace:woe-id>
        <namespace:subregion>NULL</namespace:subregion>
        <namespace:fips>MI23</namespace:fips>
        <namespace:postal-code>ZO</namespace:postal-code>
        <namespace:name>Zomba</namespace:name>
        <namespace:country>Malawi</namespace:country>
        <namespace:type-en>District</namespace:type-en>
        <namespace:region>Southern</namespace:region>
        <namespace:longitude>35.4256</namespace:longitude>
        <namespace:woe-name>Zomba</namespace:woe-name>
        <namespace:latitude>-15.4526</namespace:latitude>
        <namespace:woe-label>Zomba, MW, Malawi</namespace:woe-label>
        <namespace:type>District</namespace:type>
        <namespace:hc-middle-x>0.51</namespace:hc-middle-x>
        <namespace:hc-middle-y>0.47</namespace:hc-middle-y>
        <namespace:hc-key>mw-zo</namespace:hc-key>
        <namespace:hc-a2>ZO</namespace:hc-a2>
      </namespace:desc>
    </path>
    <path
       id="MW.MJ"
       d="m 274.08571,661.04075 -0.6,2.3 0.5,4.2 -1,3.4 -1.3,1.4 -6.4,4.3 -4.3,0.3 -8.3,2.4 -2.2,0.2 -1.3,2.7 -2.9,-1.3 -2.1,-2.5 -3.5,-0.7 -3.6,1.6 -6.7,6.1 -1.2,-1.5 0.7,-3.4 2.3,-2.6 0.4,-2.6 -1,-8.3 2.2,-5.6 -1.1,-15 0.1,-3.3 1.8,-5.1 4.3,-1 6.6,-0.7 2.6,-3 2.8,-2 0.8,1.1 -3.2,5.5 1.3,1.6 0.4,8.3 1.1,3.6 2.8,2 2.9,7.6 3.5,-3 2.2,-0.7 5.7,4.4 4.3,-1.2 z"
       inkscape:connector-curvature="0"
       style="fill:#ffffff;fill-opacity:1;stroke:#6e6e6e;stroke-width:0.40000001">
      <namespace:desc>
        <namespace:labelrank>7</namespace:labelrank>
        <namespace:hasc>MW.MJ</namespace:hasc>
        <namespace:alt-name>Mlange|Mlanje</namespace:alt-name>
        <namespace:woe-id>20070141</namespace:woe-id>
        <namespace:subregion>NULL</namespace:subregion>
        <namespace:fips>MI29</namespace:fips>
        <namespace:postal-code>MJ</namespace:postal-code>
        <namespace:name>Mulanje</namespace:name>
        <namespace:country>Malawi</namespace:country>
        <namespace:type-en>District</namespace:type-en>
        <namespace:region>Southern</namespace:region>
        <namespace:longitude>35.5397</namespace:longitude>
        <namespace:woe-name>Mulanje</namespace:woe-name>
        <namespace:latitude>-15.9868</namespace:latitude>
        <namespace:woe-label>Mulanje, MW, Malawi</namespace:woe-label>
        <namespace:type>District</namespace:type>
        <namespace:hc-middle-x>0.49</namespace:hc-middle-x>
        <namespace:hc-middle-y>0.73</namespace:hc-middle-y>
        <namespace:hc-key>mw-mj</namespace:hc-key>
        <namespace:hc-a2>MJ</namespace:hc-a2>
      </namespace:desc>
    </path>
    <path
       id="MW.PH"
       d="m 250.88571,631.34075 1.2,-2.8 7.3,-4.8 3.4,-3.2 5.5,-1.9 10,-0.3 -3.2,39.4 -1,3.3 -1.4,-0.5 -4.3,1.2 -5.7,-4.4 -2.2,0.7 -3.5,3 -2.9,-7.6 -2.8,-2 -1.1,-3.6 -0.4,-8.3 -1.3,-1.6 3.2,-5.5 z"
       inkscape:connector-curvature="0"
       style="fill:#ffffff;fill-opacity:1;stroke:#6e6e6e;stroke-width:0.40000001">
      <namespace:desc>
        <namespace:labelrank>8</namespace:labelrank>
        <namespace:hasc>MW.PH</namespace:hasc>
        <namespace:alt-name>NULL</namespace:alt-name>
        <namespace:woe-id>1368989</namespace:woe-id>
        <namespace:subregion>NULL</namespace:subregion>
        <namespace:fips>MI30</namespace:fips>
        <namespace:postal-code>PH</namespace:postal-code>
        <namespace:name>Phalombe</namespace:name>
        <namespace:country>Malawi</namespace:country>
        <namespace:type-en>District</namespace:type-en>
        <namespace:region>Southern</namespace:region>
        <namespace:longitude>35.667</namespace:longitude>
        <namespace:woe-name>Phalombe</namespace:woe-name>
        <namespace:latitude>-15.6883</namespace:latitude>
        <namespace:woe-label>NULL</namespace:woe-label>
        <namespace:type>District</namespace:type>
        <namespace:hc-middle-x>0.47</namespace:hc-middle-x>
        <namespace:hc-middle-y>0.48</namespace:hc-middle-y>
        <namespace:hc-key>mw-ph</namespace:hc-key>
        <namespace:hc-a2>PH</namespace:hc-a2>
      </namespace:desc>
    </path>
  </g>
  <g
     inkscape:groupmode="layer"
     id="layer2"
     inkscape:label="Layer" />
</svg>
